<svg width="128" height="128" viewBox="0 0 128 128" fill="none" xmlns="http://www.w3.org/2000/svg">
<g clip-path="url(#clip0_1_2)">
<rect width="128" height="128" rx="10" fill="black"/>
<rect x="24.1078" y="24.3708" width="80" height="80" rx="25" transform="rotate(-0.642035 24.1078 24.3708)" fill="black"/>
<rect x="69.3163" y="21" width="100" height="100" rx="25" transform="rotate(30.2095 69.3163 21)" fill="#008B8B"/>
<rect x="3" y="89.3197" width="72.9795" height="73.3128" rx="15" transform="rotate(-12.9218 3 89.3197)" fill="#DAA520"/>
<path d="M26.328 64.96C20.888 64.96 16.312 64.448 12.6 63.424C8.888 62.4 6.328 61.408 4.92 60.448L6.84 50.56V48.64C7.736 49.856 9.016 51.136 10.68 52.48C12.408 53.824 14.456 54.976 16.824 55.936C19.192 56.832 21.784 57.28 24.6 57.28C29.336 57.28 32.6 56.288 34.392 54.304C36.248 52.32 37.176 48.832 37.176 43.84V12.16C37.176 10.112 36.952 8.672 36.504 7.84C36.056 6.944 35.608 6.464 35.16 6.4H49.944C49.496 6.4 49.048 6.848 48.6 7.744C48.152 8.64 47.928 10.144 47.928 12.256V43.84C47.928 49.472 47.032 53.824 45.24 56.896C43.512 59.904 41.016 62.016 37.752 63.232C34.552 64.384 30.744 64.96 26.328 64.96Z" fill="#FFD700"/>
</g>
<defs>
<clipPath id="clip0_1_2">
<rect width="128" height="128" rx="10" fill="white"/>
</clipPath>
</defs>
</svg>
